# xmcd
# Track frame offsets:
# 150
# 14135
# 30365
# 46165
# 64338
# 80621
# 96559
# 113433
# 128323
# 145978
# 160215
# 176695
# 192723
# 206768
# 224211
# 240467
#
# Disc length: 3691 seconds
# Revision: 0
# Processed by: cddbd v1.5.1PL2 Copyright (c) Steve Scherf et al.
# Submitted via: VisiTrax 2.9.10.228 - For more info visit www.synapsa.com
#
DISCID=eb0e6910
DTITLE=Raffaele - My Italian Roots CD2
DYEAR=2004
DGENRE=Italiaans
TTITLE0=You Are (My Freakin' Destiny)
TTITLE1=Baila Bimba
TTITLE2=Una Notte Magica
TTITLE3=Bisogno Di Te
TTITLE4=Non Dirmi No
TTITLE5=Falice Non E
TTITLE6=Innamorato
TTITLE7=I Need To Know
TTITLE8=Be With Me X Sempre
TTITLE9=Occhi Di Stelle
TTITLE10=L'unica Donna For Me
TTITLE11=Save Me
TTITLE12=Libera
TTITLE13=Ritmo
TTITLE14=Angel Eyes
TTITLE15=Lacrime Di Gioventu
EXTD=
EXTT0=
EXTT1=
EXTT2=
EXTT3=
EXTT4=
EXTT5=
EXTT6=
EXTT7=
EXTT8=
EXTT9=
EXTT10=
EXTT11=
EXTT12=
EXTT13=
EXTT14=
EXTT15=
PLAYORDER=
